/* XPM */
static char *exit100[] = {
/* columns rows colors chars-per-pixel */
"100 56 256 2 ",
"   c #04060A",
".  c #06090D",
"X  c #050609",
"o  c #0A0D14",
"O  c #060B15",
"+  c #0C121C",
"@  c #0C1016",
"#  c #15161A",
"$  c #150E15",
"%  c #2C1919",
"&  c #091425",
"*  c #171B25",
"=  c #071B37",
"-  c #0D172C",
";  c #261D24",
":  c #1C222C",
">  c #0B223B",
",  c #182437",
"<  c #28262A",
"1  c #362C29",
"2  c #282C34",
"3  c #2D3238",
"4  c #34363A",
"5  c #3A3A3C",
"6  c #353436",
"7  c #3A312E",
"8  c #3E251C",
"9  c #55070B",
"0  c #660205",
"q  c #483C37",
"w  c #4C3229",
"e  c #5F2A24",
"r  c #50433D",
"t  c #6F4D37",
"y  c #75441E",
"u  c #021C43",
"i  c #072549",
"p  c #162C46",
"a  c #032A55",
"s  c #042B59",
"d  c #08315B",
"f  c #183353",
"g  c #2A3547",
"h  c #3C3D42",
"j  c #343B47",
"k  c #253A56",
"l  c #273348",
"z  c #032D63",
"x  c #053568",
"c  c #173A66",
"v  c #053A76",
"b  c #193F75",
"n  c #223B63",
"m  c #413E43",
"M  c #593846",
"N  c #7C3E41",
"B  c #3C424A",
"V  c #2D4259",
"C  c #384557",
"Z  c #064779",
"A  c #174776",
"S  c #144973",
"D  c #284667",
"F  c #354B66",
"G  c #36526C",
"H  c #254975",
"J  c #2B5679",
"K  c #355879",
"L  c #344F71",
"P  c #3E627C",
"I  c #434245",
"U  c #44454A",
"Y  c #4B4A4D",
"T  c #4A4648",
"R  c #544B46",
"E  c #4C4C52",
"W  c #454A56",
"Q  c #504F54",
"!  c #535155",
"~  c #55545A",
"^  c #59575B",
"/  c #5B595D",
"(  c #585658",
")  c #555352",
"_  c #66554B",
"`  c #655A55",
"'  c #6F534F",
"]  c #6B625B",
"[  c #776659",
"{  c #485669",
"}  c #5D5B62",
"|  c #565A65",
" . c #475E77",
".. c #49556B",
"X. c #615E64",
"o. c #6F5966",
"O. c #725C6F",
"+. c #566577",
"@. c #4D6376",
"#. c #636165",
"$. c #65646A",
"%. c #69666C",
"&. c #6B696D",
"*. c #6B6766",
"=. c #756B63",
"-. c #786C65",
";. c #7B736B",
":. c #6D6B73",
">. c #676A75",
",. c #706E75",
"<. c #6A727C",
"1. c #737176",
"2. c #74737B",
"3. c #7B7879",
"4. c #A61D32",
"5. c #AC2538",
"6. c #B42A3B",
"7. c #B02639",
"8. c #91313B",
"9. c #B53244",
"0. c #B13143",
"q. c #953A49",
"w. c #867569",
"e. c #847C76",
"r. c #91726A",
"t. c #996162",
"y. c #8A5727",
"u. c #8A837B",
"i. c #93867A",
"p. c #033D85",
"a. c #0B3D91",
"s. c #2D3B93",
"d. c #044986",
"f. c #075489",
"g. c #044895",
"h. c #045796",
"j. c #17538C",
"k. c #285687",
"l. c #385B84",
"z. c #295588",
"x. c #086499",
"c. c #186699",
"v. c #396489",
"b. c #296996",
"n. c #366892",
"m. c #336A92",
"M. c #0359A6",
"N. c #084EA9",
"B. c #0464AA",
"V. c #0169B6",
"C. c #0369B6",
"Z. c #1668A9",
"A. c #3276A9",
"S. c #304AAB",
"D. c #476887",
"F. c #587897",
"G. c #53718C",
"H. c #687686",
"J. c #777C87",
"K. c #657990",
"L. c #497BA6",
"P. c #474E94",
"I. c #1374C1",
"U. c #4D3EA3",
"Y. c #847D82",
"T. c #B27B8C",
"R. c #3A84B6",
"E. c #7A828C",
"W. c #7A8796",
"Q. c #668399",
"!. c #5489B1",
"~. c #718DAA",
"^. c #79A5BC",
"/. c #2B97D0",
"(. c #76B0D3",
"). c #5F9BC5",
"_. c #888787",
"`. c #948C85",
"'. c #98918A",
"]. c #878B96",
"[. c #938C96",
"{. c #8C939B",
"}. c #979699",
"|. c #A39A98",
" X c #AB9390",
".X c #B4A39A",
"XX c #8A95A6",
"oX c #979AA7",
"OX c #959DB1",
"+X c #8795AE",
"@X c #A49DA3",
"#X c #A48EA4",
"$X c #9BA2A8",
"%X c #99A6B7",
"&X c #8EA5BC",
"*X c #A7A5A9",
"=X c #A7ABB5",
"-X c #ACB2BB",
";X c #B5B5B9",
":X c #B6ADA9",
">X c #99A19D",
",X c #C7B5A7",
"<X c #C5BCB9",
"1X c #D6BDA7",
"2X c #CDB193",
"3X c #CEC3BD",
"4X c #96ABC8",
"5X c #9AB4D4",
"6X c #8CA9C9",
"7X c #A8B6C7",
"8X c #B6BBC5",
"9X c #A7BAD7",
"0X c #AAB1C5",
"qX c #96BAEA",
"wX c #A7BEE2",
"eX c #BCC2CA",
"rX c #B6C5D9",
"tX c #ADC1D9",
"yX c #9CC2F0",
"uX c #A8C3E7",
"iX c #B7CBE7",
"pX c #BCD1ED",
"aX c #ABCCF5",
"sX c #A5C7F3",
"dX c #B2CFF6",
"fX c #B4D2F9",
"gX c #BAD5FA",
"hX c #BDD9FB",
"jX c #BAD3F5",
"kX c #AED1F7",
"lX c #C7C6C8",
"zX c #C6CCD4",
"xX c #D7D7D9",
"cX c #D2CECF",
"vX c #E1D9D3",
"bX c #C6D3EA",
"nX c #C4D6F2",
"mX c #C6D9F5",
"MX c #CADBF5",
"NX c #C3DCFB",
"BX c #CADEFA",
"VX c #CAD6F1",
"CX c #D6DCE6",
"ZX c #CCE3FC",
"AX c #C6E1FD",
"SX c #D3E5FC",
"DX c #D6E9FC",
"FX c #DAEAFC",
"GX c #D7E5F8",
"HX c #DEE1E4",
"JX c #E5E6E8",
"KX c #E9EDF3",
"LX c #F5F6F7",
"PX c #F0EEED",
"IX c #E4E0DD",
"UX c #C3BFC0",
/* pixels */
"4X5X9X9X9XwXwXwXxXCXVXbXwXwXVXVXbXdXpXdXdXjXgXnXBXBXBXBXBXBXZXSXBXBXAXBXZXNXBXBXBXBXNXZXNXmXBXNXNXAXNXNXNXhXNXNXhXNXNXnXgXgXfXgXfXdXaXsXsXaXaXaXaXdXgXgXfXfXfXfXdXaXqXaXsXsXaXaXyXsXsXqXqXqXqXqXqXwX9X5X",
"9X5X9X9XwXwXbXbXwXbXbXVXbXbXVXVXMXMXmXnXnXnXnXNXnXBXBXKXFXSXSXSXSXAXZXAXSXSXZXSXZXSXSXNXNXZXSXNXSXBXZXZXNXNXNXNXNXNXMXBXNXgXgXgXhXgXdXaXaXfXsXaXdXfXgXgXfXfXfXdXaXsXsXsXsXsXaXfXfXfXaXqXqXqXqXqXqXqXqX5X",
"8X9X9XwXwXwXwXiXVXbXbXbXnXnXnXnXmXMXnXmXnXBXBXBXBXSXKXFXKXDXSXSXFXSXSXSXSXZXSXZXSXSXSXSXSXSXSXZXSXSXZXBXBXNXNXNXBXZXZXBXNXgXgXNXNXNXBXBXhXgXfXfXfXgXfXgXgXgXgXgXjXfXdXdXaXaXaXfXfXkXsXsXyXyXqXqXqXqXqXqX",
"8X9X9XwXwXuXiXiXbXbXbXVXVXVXnXnXnXmXBXBXNXBXBXBXSXBXSXKXKXDXDXSXSXSXSXSXZXSXSXSXSXSXDXSXFXSXDXDXSXSXSXSXZXSXZXBXSXZXZXBXNXNXNXNXNXNXSXSXNXNXhXNXhXgXNXgXhXhXgXfXfXfXfXfXfXfXdXfXkXkXkXaXsXyXyXyXqXqXqXqX",
"wXwXiXiXwXbXiXiXiXnXVXVXVXGXVXMXmXMXMXBXBXBXBXZXZXZXSXGXKXZXDXSXSXDXFXFXFXDXDXDXKXFXSXFXDXSXFXFXDXFXSXSXSXSXSXSXFXGXSXGXGXSXBXBXBXZXFXBXhXNXNXNXNXNXNXNXNXNXhXhXgXgXgXgXnXgXgXfXkXkXkXaXsXsXsXsXyXyXuXqX",
"wXwXiXbXbXbXbXiXnXnXVXmXMXMXGXGXMXMXBXBXBXBXBXBXZXSXGXSXFXFXDXKXFXDXFXFXFXFXKXFXMXbXzX9X7X0X=X=X=X%X=X-X7XrXbXCXGXFXDXFXBXSXSXSXDXSXFXBXAXMXNXNXNXNXAXNXNXNXNXNXhXhXNXNXnXhXhXfXfXfXkXkXkXaXaXsXsXsXsXuX",
"wXuXiXiXbXpXnXnXnXnXMXmXGXMXGXGXGXFXSXBXZXBXBXBXSXSXSXSXSXBXSXFXFXbX8X%XXX].J.J.,.,.2.2.J.2.J.2.2.2.2.2.2.2.,.,.2.J.XXOX%X9XiXNXSXDXDXZXSXZXZXMXBXNXBXNXNXNXhXhXhXNXNXhXNXhXhXgXhXfXfXkXkXsXkXsXaXaXsXsX",
"iXwXiXdXiXpXbXnXVXnXMXVXVXBXMXGXFXFXSXSXSXSXSXSXSXSXSXSXbX0XXXJ.>.$.>.,.,.2.,.,.2.2.2.2.2.2.2.H.2.,.2.2.3.J.3.J.J.3.2.3.J.2.2.J.{.$X9XMXGXSXZXZXBXBXBXNXNXNXNXNXNXNXNXhXgXhXhXhXfXfXfXfXkXkXkXkXaXaXaXaX",
"uXiXdXpXjXjXnXnXVXnXmXmXMXBXBXSXGXFXFXGXSXGXSXSXpXOXJ.>.| $.$.$.$.$.>.$.%.%.>.:.>.:.:.,.:.,.,.,.1.3.2.3.2.1.,.2.2.1.2.1.1.2.2.2.2.3.3.2.E.%XtXZXZXZXZXZXZXAXZXZXAXAXBXNXhXhXhXhXhXgXfXfXfXfXfXkXkXkXdXkX",
"uXiXiXpXpXnXjXmXmXmXMXVXMXBXBXSXSXFXKXGXGX9XXX>.| X.$.$.$.X.$.$.$.$.$.$.$.+.>.:.O.>.:.>.:.:.,.>.~.).).!.,.,.,.,.,.,.,.,.1.1.1.1.1.1.2.2.1.1.2.,.W.=XbXZXZXZXZXZXAXAXAXAXAXAXAXhXhXhXhXhXhXhXhXhXhXjXdXkX",
"uXiXiXpXnXnXnXnXMXBXBXBXBXZXSXBXBXVX0XJ.} | ^ | } | } } | } } X.X.X.X.X.$.$.$.O.$.$.%.%.%.%.:.!.(.5X(.(.K.%.:.:.,.:.:.,.:.,.,.&.,.>.,.,.1.1.1.1.3.1.&.J.$XiXZXAXZXZXAXAXAXAXAXAXAXAXAXhXhXhXAXhXhXjXjXjX",
"iXpXpXpXnXmXMXmXMXBXBXSXSXZXVX0XH.~ | ^ } | ^ | } | | } | | | | | } | $.$.$.} X.$.O.$.%.$.$.+././.>X)./.!.%.:.&.&.&.:.&.:.&.:.&.%.%.&.&.&.&.&.%.&.&.&.&.&.#.E.%XNXZXZXAXZXAXAXAXAXZXAXAXAXAXAXAXhXhXhXjX",
"iXpXpXpXnXnXmXMXBXAXBXBXbX]...Q Q Q Q ~ ! ! ~ ! ~ ~ ~ ~ ^ ^ | ~ | } ~ } } X.X.X.} $.$.#.#.X.{ /.(.2X:X/.A.%.&.%.&.%.%.&.&.:.%.%.*.$.*.%.$.$.$.$.$.$.$.$.$.$.&.$.$.{.rXZXZXZXZXZXZXZXZXZXZXAXZXAXAXNXNXhX",
"9X9XtXiXiXnXpXnXmXMXiXJ.Y E Q Q Q Q Q Q Q Q Q Q Q ! ~ ~ ~ ~ ~ ~ ~ ~ } } } } X.X.#.} #.#.$.} W R.^.(.&XR.D.X.*.$.$.#.%.$.*.o.$.$.#.X.#.#.#.#.#.#.#.X.X.] #.#.#.#.X.} / H.9XDXDXZXZXZXZXZXZXZXZXZXZXAXNXmX",
"4X9X9XwXiXrXiXiX9X<.Y Y Y E Y Y E Y E Y E E E Q Q Q Q Q ! ! ~ ! ~ ~ ^ ^ ^ ^ } } } X.X.X.X.} ~ C !./.(.Q.E $.$.$.%.#.$.%.$.%.$.#.$.#.#.#.#.#.X.X.X.X.X./ X./ / X.} / #.#./ <.7XDXDXZXSXZXSXAXZXZXZXZXAXNX",
"4X4X9X9X9XuX9XH.I U U U T T Y Y Y Y Y E Y E E E Y E Q Q Q Q ! ~ ~ ~ ^ } } } } } } } X.X.X.} | m 3 V V j / X.X.X.#.X.X.#.#.#.X.X./ X./ X./ ( / / / / / ( ( / / ( ^ ^ ^ ^ ( X./ H.iXDXDXDXDXDXSXZXZXZXAXAX",
"6X5X5X5X9X~.m m I I B I I T Y T T U Y Y Y Y Y Y Y Y Q E Q E ! ! ! ~ ~ | ^ | / } } } } X.X.} } ^ ) Y ) / } #.#.#.#.#.#.#.#.#.X.X.#.X.X.X./ / ^ / / ^ ^ ^ ! ( ( ( ) ~ ~ ) ( ( / / / ~.ZXDXDXDXDXDXSXZXZXAX",
"4X6X9X4X| h m m B 5 5 I I I I I U U U B T T Y Y Y Y Y ! ~ / | $.%./ ~ ~ ^ ^ ^ ^ / / } } } } } / ( / #.| } #.} } } } } } } } / } / / / / / ^ ^ ^ ^ ! ! ! Q Q ! Q ! ! ! ! ! ! ! ! ) ) #.rXDXDXDXDXDXSXZXZX",
"4X5XK.j m h m h 5 I I I I I I I U Y T ) W ) ( *.&.1.2.u.E.E.E._.J.{.,.~ ~ ^ } } / } } X.} / } / | / / #.#.} } X.X.} } } } / ( } ^ <.XXXX]._.J.2.$.~ ! ! ) ) Q Q E ! ! ) ! ! ) ) ) ) ! E >XDXDXDXDXDXZXDX",
"5XH.j m m 3 3 3 3 3 5 3 3 3 3 3 U 4 I ( e._.e.u._.'._.}.}.'.'._.].oXXX].#.~ ~ / U U B Y ! E W E ) ) E E E E Y ) Y Y T ) } / / *.J.E.XX&X&X&X4X&X&XOXoX{.J.:.Y Y B Y Y Y Y B T Y Y Y Y Y Y E.DXDXDXDXDXZX",
"{ 6 6 3 3 h 3 6 4 4 5 3 3 4 3 I *.u.i.>X>X>X>X>X*X*X>X>X$X$X$X$X_._.XX+X*Xe.} ^ } E B B E C B B h Y I B C j j B j B ~ / / X.3.E.E.W.XX%X%X5X9X4X5X7X7XXXoX9X%X]./ B h h h 4 4 h 5 4 4 5 h E $.pXDXDXDXDX",
"6 6 2 2 3 h 3 3 3 4 5 5 B ( e._._.;.;._.i.W.>X>X}.>X].>X>X$X>X{.].{.*XXX*X*X<X`.,.} / B E C C B I Y h B B B h B Y } ^ &._.E.E.E.W.].].XXXXOX4X&XOX6X9X%X%X%X9XiXpX$XJ.B h h 5 5 5 5 5 4 h h E ! zXKXDXDX",
"6 5 5 I I I m I I I ) *.u._.`.u.i.'.u.`.>X>X>X>X*X$X$X$X*X$X>X}.=XzXzXzXlX@X3X=X=X*XE.3.o.| | | ( X.( { ! ~ ) #.,._.[.[.|.[.*X-X=XW.XX%X%X%XOX4XOX6X4X+X{.XX5X&X&X{.%XtX].) B 5 4 5 5 5 5 5 h Y ( rXDXMX",
"2 1 1 2 7 6 6 5 4 3 T e.3.e.e.w.e.;.;.w.w.=.e.e.e.;.3.u.3.e.3.E.%XeXeXzXzX;X<X-X=X<X,X,XoX[.'.J.u.3.3.u.u.E.]..X|.,X[.}.|.$XeXeXtX%XXX].E.{.+XXX+X+X&X+XW.{.tX5X&XQ.-XtXrX7X{./ R Y Y Y Y Y Y Y B ( zXDX",
"< < < 1 3 6 5 6 5 ] ` ] =.[ [ [ ;.u.[ i.i.u.w.u.u.u.'.i._._._._.eXzXzXeXeX:XlX*XoX:X:X,X[.#X1X,X.X[.@X1X,X'.[..X2X.X[.[.*X}.-X-X-X%XXX{.4X=X;XlXUX;X#X#X:X.X=X%X&X=XOX7X9X9X9X[.| Y B B r B I T Y T ! CX",
"< < < < 6 < R ] =.] =._ _ _ =.[ _ ] [ [ e.[ =.;.w.u.3.3.3.J._.{.zXHXxXxXlX8XCXeXOX@X|.|.[.}.,X.X#X[.@X,X.X[.]. X|.@X].OX7X*X8X7X7X%X&X}.8X8X-X=XeX=X=X=X#X0X=X0X-X-X8XzXbX8XeX7XXX#./ r h h h B I U I @.",
"< < < 7 < 1 ;.] =.] =.` _ _ =._ _ _ t [ ] [ =.=.=._.*.*.'.>X>X-XxXcXcXzXUX3XlXzX-X@X.X#X#X@X@X.X}.[.|.:X}.[.].[.}.{.].=X-X*X*X;X7X=X$XW.:X|.oXXXOX#XY.OXOX[.[.J.W.W.+X%XrX9XiXrXiXxX].E T 5 h r I h h h ",
"; < q r q R R r r ] ) _ _ _ =._ _ _ _ i.[ [ w.w.;.>X;.E.>X=X$XHXLXPXHXHXcXIXHXxXxX=X@X#X*X*X:X}.}._.[.:X[.oX#X@X@X[.*X-X8XlX;XrXzXrX7X$XlXlX:XoXOX=X=X%X%X%X0XXXW.+XW.+X0X&X7X7X%XeXtX&.h Y h h 5 5 5 5 ",
"* # 6 t _ _ q q r ] R _ _ =._ _ _ ] [ u.[ [ [ [ 3.u.e.{.>X:X*XxXHXHXJXJXcXHXHXJXKXCX3XcXcXlXlX,X,X.X,XcX<XcX3XvXvX;XlXzXzXxXlXzXlXeX8X$X3XvX:X=X*X-X=X%X=XOXOXoXOX+XOX=X+X&X6X4X&X7X5X4X,.I I 5 5 5 4 6 ",
"# 7 r r r r 7 7 r 7 8 q q [ _ t t _ i.u.[ u.u.[ _.;.=.>X>X-X;XKXKXJXJXJXxXLXJXHXxXzXcX3XcXxXxXlX3X,X<XcX1XvXcX1X<X=X;X;X8X3X3XxXbXzX7X%X*XcX;X-X0X0XOXOXOXOXOXOX0X=XOX%XOXXXXXW.E.<.XX_. X%.5 4 5 4 4 4 ",
"7 r r r ) 7 % 8 R q 1 8 _ =.[ [ [ w.i.i.i.[ i.[ _.;.*.>X>X>X=XJXKXLXLXLXxXPXLXJXJXHX;X0X8XIXcX.X1X2X,X3X:XlX*X*XoX@X=X;X;XeX;XcXeX7X%X&X[.zX=XCXCXKXUXoXoXXXoXOX0XzXeXzXrXOX~.:.$.} B T ] 1.^ 5 4 6 < < ",
"r ) r r ) R R r R R r r _ _ ] _ _ [ w.;.u.u.i.[ 3.*.*.H.J.E.3XJXKXKXJXKXlXxXzXxXxXcX8XUXlXUXcX,X1X.X,X3X,X<X@XoXXX[.}.$X=X-X$X:X$XOXXXJ.J.zXzXxXCXHXcXOX=X8X-X=X8X*X;X;X0X=X_.Y.] ( r ` 1./ *.U 6 5 1 < ",
"5 I 5 r 7 q q X.r r r r w.` [ ;.u.>Xi.i.>Xi.>X>X=.( *.<.*.*.IXPXPXKXPXxX*X=XeXlXHXHX=XcX8X-X-X}.$X$X$X-XoXoXoXXXXXE.Y.W.J.J.J.>.+.<.>.<.W.JXLXPXLXLXLXPXLXLXPXLXJX=X7X%X%X%X) R ~ | Y %.%.o.#.&.5 6 3 < ",
"r 7 r =._ ` ;.u.w.e.e.3.u.u.i.i.i.>Xi.>X.Xi.>Xi.;.( ;.i._.*.;XeXeXeXeXeX;XeXzXcXPXlX|.;X-X=X%X*X$X%XoXoXXX{.{.W.H.[.`.[.[.oX@X|.>X>XE.E.J.=XeXcXxXJXPXHXIXJXJXJXJXcXzXcXeXeX_.3.e.}.Y.>.~ W O.j 6 6 5 < ",
"R R ` _ _ ` ] *.=.;.;.;.u.u.i.i.i.i.i.>Xi.i.>XW.3.] e.i.W.3.eXeXeXeXcX<X3X8X;X:X*X*X3XlXzXcXeX;X;X;X8XlX*X;X:X*X_.J.w.'.}.=X=X X>X>XW.E.J.=XJXHXIXJXPXIXLXLXLXLXPXIXxXHXxX=X{ V G.H.} -.*.X.T 4 2 , W B ",
"_ [ w.( ` ` ;.] =.=.=.;.=.=.[ w.'.u.u.i.i.u.i.i.;.;.i.>X3.>XeXeXeXzXcXUXcXcXUX;X;X*X3XlX3XlX;X:XlXlX;X;X*X;X}.|.@X@Xr.'.|.*X|.|.-X>XW.E.E.$XCXxXcXeX;X$XLXLXLXLXLXJXlXIXxX3XV f { H.+.g , i = = > p k j ",
"I ) ) ) ( #.#.] } | ! E Y Y Q { G.@.@.P @.P P m.P P P D.P !.Q.Q.~.^.XX>X7X%X>X%X*X*X8X;XlX;X|.'..XxXlXlX:Xi.u.w.'.=Xu.`._.].].E.W.Q.Q.Q.D.G.+X~.~.{.W.H.W.%X=X-X-X}.-XlXUX>.f p l  .{ F | ,.W B W W j k ",
"> d i d d x d Z d d > , , , , v Z Z Z Z Z Z Z Z Z x.x.Z Z J x.c.b.c.b.c.^.~.!.!.b.x.x.x.x.x.F.!.L.n.L.!.L.f.h.f.x.h.f.h.h.f.f.f.f.f.f.Z f.f.b.b.b.b.m.m.v.m.m.m.m.m.v.D.v.D.i > p G +. .G. .V g ) [ o.' ",
"a d d a d d d x d a a , , * > Z Z Z Z S S S S Z S Z S J S R.b.b.b.b.c.x.f.m.m.R.!.f.x.x.x.x.c.A.m.b.A.A.b.x.h.x.h.h.x.f.b.c.f.f.f.f.f.f.Z S n.n.m.m.m.m.v.v.m.v.v.v.v.m.Q.Q.V > , F  .{  .@.G : g j j p ",
", > f 3 f f k k V { +.Y g ~ | G G G G G J J P J P P J J J Q.P Q.Q.Q.Q.@.Q.Q.E.H.Q.+.+.H.2.H.H.H.H.<.2.2.<.+.+.+.+.+.D.2.2.H.D.@.P @.P  .D.D.| +.K.+.G./ | G.+.+.@ W +.H.E.2._ , % U G C V * < < J.W.{.| ",
"d a a d d d x d z D.c _ % <.W.d Z Z Z Z Z Z Z Z d.d.f.f.f.x.x.c.x.x.c.x.c.A.L.Z.x.D H...+.G.H.w.y.t.w.3XJ.+...{ | V f.Q &.K.n.G d.S # C j g < l >.o.K M % , H D.B 3  .j m 6 2 2 o # V $ @ @ * : , j | l ",
"a > a 3 Q | d d K.A L 7 r Q.+.s d S Z Z S S Z Z d.Z Z f.x.x.x.x.x.x.x.G ..A.!.x.x.l.K.K.S j.| y.y.y.y '.D.Z v  .F. .p E g k m ' t.p j 2 - ` m ` R 8 ` k W I 3 D p p , l # o $ @ o O @ # + @ ; # - i O   ",
"+ o + h t r c D J.d { # R ~ 4 D j k J J B < { G J h J k.m.b.J l m.b.m.C W n.D.n.b.n.P.~.f.x p r.r w y % P h.Z D.z.l.+ * , D D * Q 2 W W # ` 3 j m 8 % 3 g C j , - * , , * + O X . . O . o # # ~ 2.p 2 . ",
"@ X # ; 1 + i d *.B R $ ~ %.# > @ p Z & # + ) G , T i Z x.x.i > x.x.d = u n L.N.g.h.x.!.d.d - g < 8 e X K h.Z D.g.Z O & p z.z.g m : j j * [ < < ; % % 2 , , , O & & = - - o . X         X   @ < } ~ ,   ",
"X . # : # # + C -.3.# < * 2 : + . a x * # * 7 f 3 5 d Z f.A < F J S & & & & A.I.a.N.h.F.d.v - , 1 w y 8 | h.Z v.z p.& @ & a.a.i m - - n j E h 4 m % $ & & * , * O + - , - O h X X X     X . X 3 ~ $.B X ",
"X X @ # o . o X.i.( % < * * ; + - i p * + < 4 S C W F F j q q n d.> O & & & j./.N.N.Z.K.j.S , [._ w y 8  .j.A K g.c.& o + v N.a g + O : l p p k a.b.b.z.D F j 2 3 O   O . X o   X   X X   .   . >.$.E X ",
"X . . @ X X o / ! 2 # . ; < < * E | <.+.D.K P S z - 2 , , M ' b d.s O & & z d././.P.L b.c.j.D :Xq.w 8.8.P.Z.c.d.A L.+ . + v N.s W : O 2 p k k c d.h./.C.g.c c n H F D j g 2 * o X   O . . . . X W +.W : ",
"#   @ X X o 2 @ 4 Y 7 # % 1 < K K J v x d.h.h.f.z = ..p , < < p.d.p.& & = n.A./.l.z.M.B.M.Z M Y.q.w 6.5.t.A.V.B.M.d.= O . a N.g.2 2 O 2 p p k c g./.C.g.H d s z x x p.v v x c V k B j g .       & i = O ",
"@ . # . * g W W {  .3 $ % w z.d.x z z x v p.g.g.v s C j o.: * x N.j./ [ e.F.G.G C.C.C.C.C.~.0.0.8.e 7.0.9.t.I.C.C.C.h.&   6 N.B.p < o * p u f b M.C.h.z.H p n V v x v v v v z z i u i 2 j   . . O + O O ",
"4 j W B k k c v x.Z.- # t ' z.d.z s b H v d.p.g.v z * o O ; < f N.Z.h ] ;.@.j.C.C.I.C.C.R.9.0.9.6.8.9.0.9.6.T.I.C.C.M.d . : A N.s X o @ , d n d.d.d.d.L L L b s H x v v p.v z z a i = # m * * 8 % % $ + ",
"B = = i s a z d.x.f.: w q j.z.c b a H d z.v p.g.p.= o o . 6 ~ + V.C.W e. .C.V.V.C.C.C.I.T.0.9.9.e e 6.9.9.6.9.!.C.V.M.g.O & g.c f X O @ * p c p.Z v H D L.^.H n H v x v v v x z a i u # j m $ 0 0 0 0 0 ",
"# = = a s s x p.f.> o & C.g.n.s H D.l.H b x a.v a.a + o   O 2 2 v j.X.`.B.C.V.V.C.C.C.).9.0.6.6.6.6.6.6.6.9.9.T.I.N.M.M.O = M.h.Z .   . 2 k c v x x H L.6XL.l.n c x x x v p.x z a i = $ * W 9 0 0 0 0 9 ",
"< = u a s s x v = o O & N.p.z.H l.6X!.z.A x g.S.s.a @ @   * h ! m F -.F.B.V.B.V.C.V.Z.T.0.9.7.6.6.6.6.6.7.7.7.0.&XB.M.M.& s M.h.g.V @ X m k c j.x c F.L.6X(.z.z.H H z.z z.d.x z D F j E * 8 0 0 0 0 0 9 ",
"# & = i z s x i . . . , p.z D.n z.L.4X!.z.b g.S.a.& + @ . o m Y z.h.e.n.B.B.B.V.V.V.6X9.7.7.7.6.6.6.7.7.7.7.7.4.t.!.M.M.+ Z M.h.f.D.W +.$.K.G.Q.D.c ~.6X9X4X+XH J n.z.F.~.D.Q.D.F.D U | 6 _ t.t.q.0 0 9 ",
"# * = u x a s O.$ X   O O - ~ ..n.6X+X(.z.b a.U.s . . .   # C f.M.b.e.M.B.M.B.B.V.L.T.5.5.7.7.7.6.7.7.7.4.4.4.4.4.#XZ.M.O d.h.h.g.j.< F j  ...l.l.f L.^.&XK.F.c j.j.S.v.P.l.l.n L i j m 4 I N N e 0 0 9 ",
"# + = u z a u o.$ X   i v v s l.A.~.4X4Xz.j.a.U.= X .   7 F g.h.h.+.^ f.h.M.M.M.M.%X7.4.5.5.5.7.7.7.4.4.4.4.4.4.4.q.~.d.  x h.h.h.g.= a O v c > a d k.^.6Xa.z.x a.g.S.U.s.z z z i = O X @ . 0 0 0 0 0 0 "
};
