/* XPM */
static char *ballon100[] = {
/* columns rows colors chars-per-pixel */
"100 100 59 1 ",
"  c #040405",
". c #070708",
"X c #0B0B0C",
"o c #0F0F10",
"O c #141414",
"+ c #171718",
"@ c #171818",
"# c #1D1D1D",
"$ c #201F1F",
"% c #201F20",
"& c #1F2020",
"* c #242323",
"= c #282727",
"- c #282827",
"; c #2C2C2B",
": c #302F2F",
"> c #2F302F",
", c #30302F",
"< c #333333",
"1 c #383737",
"2 c #383837",
"3 c #3B3B3B",
"4 c #434343",
"5 c #484847",
"6 c #4C4C4B",
"7 c #535353",
"8 c #5B5B5B",
"9 c #636363",
"0 c #676768",
"q c #6C6C6C",
"w c #737373",
"e c #777778",
"r c #7B7B7B",
"t c #7F7F80",
"y c #838383",
"u c #8C8C8C",
"i c #939494",
"p c #979798",
"a c #9C9C9C",
"s c #A4A4A4",
"d c #ACACAC",
"f c #AFAFB0",
"g c #B3B3B3",
"h c #B7B7B8",
"j c #BCBCBC",
"k c #BFC0C0",
"l c #C4C4C4",
"z c #C7C7C8",
"x c #C7C8C9",
"c c #CBCBCB",
"v c #CFCFD0",
"b c #D4D4D4",
"n c #DCDCDC",
"m c #E2E2E2",
"M c #EBEBEB",
"N c #F0F0EF",
"B c #F3F3F3",
"V c #F9F9F9",
"C c None",
/* pixels */
"CCCCCCCCCCCCCCCCCCCCCCCCCCCCCCCCCCCCCCCCCCbnbbnbbbbbbbvbvbCCCCCCCCCCCCCCCCCCCCCCCCCCCCCCCCCCCCCCCCCC",
"CCCCCCCCCCCCCCCCCCCCCCCCCCCCCCCCCCCCCCnnnbnbbnbbbbbbbbbvbvj7#=CCCCCCCCCCCCCCCCCCCCCCCCCCCCCCCCCCCCCC",
"CCCCCCCCCCCCCCCCCCCCCCCCCCCCCCCCCCnnnnnnnnnbnnbbbnnbbbbbvvbh3#-;<3CCCCCCCCCCCCCCCCCCCCCCCCCCCCCCCCCC",
"CCCCCCCCCCCCCCCCCCCCCCCCCCCCCCCCnnnnnnnbbnnnnbnnnbnbnbbbbbbbi=#=;:33CCCCCCCCCCCCCCCCCCCCCCCCCCCCCCCC",
"CCCCCCCCCCCCCCCCCCCCCCCCCCCCCnnnnnnnnnnnnnnnnnnbnbnbbnbbbbbbj4#O$=:,145CCCCCCCCCCCCCCCCCCCCCCCCCCCCC",
"CCCCCCCCCCCCCCCCCCCCCCCCCCCnnnmnmnmnnnnnnnnnnnnnnnbnnbnbbbczl9O X$:,:,145CCCCCCCCCCCCCCCCCCCCCCCCCCC",
"CCCCCCCCCCCCCCCCCCCCCCCCCnnmmnmnnmnmnnmnmnmnnnnnnnnnnnbcljjjlji8;o$,3<<<335CCCCCCCCCCCCCCCCCCCCCCCCC",
"CCCCCCCCCCCCCCCCCCCCCCCCcnnnnmnmmnmnmmnmnmnnmnmnnmmnbcjlzcbbbbbcgt5=:431<<33CCCCCCCCCCCCCCCCCCCCCCCC",
"CCCCCCCCCCCCCCCCCCCCCCnncnnmmnmmnnmnmnmmnnmnmmmMMMbclzvbnbnbbbbbvvki8<453<<<33CCCCCCCCCCCCCCCCCCCCCC",
"CCCCCCCCCCCCCCCCCCCCCmmnbbmnmmnmmmmmMmmMMMmMmMMMncccbnnnnnbnnbbbbbvvla93541<<<3CCCCCCCCCCCCCCCCCCCCC",
"CCCCCCCCCCCCCCCCCCCnnnmmnbmmmmmmmmmmmmmMMMBBBBmbcbnmmmmnnbnbnbbbbvbvbvlp833<,,;<1CCCCCCCCCCCCCCCCCCC",
"CCCCCCCCCCCCCCCCCCmmmmnmnbnbjditq98666689wridlcbmMMMmmnmnnnbbbnbbbvbvvcvku5;;;;;;,CCCCCCCCCCCCCCCCCC",
"CCCCCCCCCCCCCCCCCmnnnmnmna83%+ooOoOOOOooXXXXornMMmMMmMmnnnnnnnbbbbbbbvvvvcgq-@#*==;CCCCCCCCCCCCCCCCC",
"CCCCCCCCCCCCCCCCmnmmmmmmi%O$*=;:;;;;;;;===%@ wMMMMmMMMmmmnnnnbbnbbbbbvvvvccli1Xo@$**CCCCCCCCCCCCCCCC",
"CCCCCCCCCCCCCCCnnmmmmmms%*,21231311<<<<<;;;$.8mMMMMMMMMmmnnnbnnbbnbbvbbcvvccld6X XO@#CCCCCCCCCCCCCCC",
"CCCCCCCCCCCCCCmmmnmmmmh:$133333321<<<<;;;;;*X7mNMMMMmMMmmnnnnnnnnbbbbvvvvcvccch8X  .XXCCCCCCCCCCCCCC",
"CCCCCCCCCCCCCmmmnmmMmc5#,3333221<<<,,:;;;;-*X4mBMMMMMMMmmmnnnnnbbbnbbbbvvvvccclje8qeeeyCCCCCCCCCCCCC",
"CCCCCCCCCCCCnmnmmmmmmw@;3333111<<<,:;;;;-==$o<bBNMNMMMMmmnmnnnnnnbbbbbbvvvcvccclgdjlllllCCCCCCCCCCCC",
"CCCCCCCCCCCmmmnmmmMms#=13331<<<<,,;;;;;==**#o*cBBMMMMMMMmnmmnnnnbnbnnbvbbvvvcclcjdhlkkllzCCCCCCCCCCC",
"CCCCCCCCCCnnnmmmmmmb4#<331<,<<,,::;;;-=****#o#kBNMNMMMMmmmnnnnnnnnnbbbbvvvvcvcccldfkllkllzCCCCCCCCCC",
"CCCCCCCCCCmmmmmmmmmtO;111<<1,:;;;;;;==***%$#OodVBMMMMMMmmmmnmnnnnnbbbbbbbvvvvcclzhdkllllllCCCCCCCCCC",
"CCCCCCCCCnmnmmmmMml;#<1<<<,,:;;:;*=****$$$##+.iBBNNNMMmMmmnmnmnnnnnbnnbvbbvvvccczjdhlkkkllzCCCCCCCCC",
"CCCCCCCCnmmmmmMmmmqO;<<<,,:;;;;==;****$$#$##+.rBBBMMMMmmmmmnnmmnnbnnbnvbvbvcvvcczldgllkllllzCCCCCCCC",
"CCCCCCCCmnmmmmmmMj*#:<<::;;;;;;=***%%$#$#$$##.0MBMMMMMmmmmmnmnmnnnnbnbnbbvbvvcccxzffzlkkllllCCCCCCCC",
"CCCCCCCnmmmmmmmmm0O=<<;;;;;;;****%$$$$$$#$$$@.7mBMMMMMMmmmmmnnnmnnnnbbbbbbbvvvccczgdzlkklllllCCCCCCC",
"CCCCCCnmmnmmMmMMj*#;,;;;;;-==***%$$$$#$$$$#$#X3bNMMMmMmmmmmmmmmnnnnnnnnbbvbvvcvcczjdlzklkllllcCCCCCC",
"CCCCCCmnmmmmmmMmwX=;;;;;;-=***$$%$$$$#$#$##$#X;cNMMMMMMmmmmmnmnmnnnnbnbbbvbvvcvcccjdkclkllllzzCCCCCC",
"CCCCCmnmnmmmmmMz;+;;;;;=****%$$#$%$$$$$$$%#$@o#jNNMMmMMmmmmmmnmnnnnnnbbnnbvvvvvcxzkskclkllllllcCCCCC",
"CCCCCnnmmmmMmMMuo&;;;==***%$$$$$#$#$$#$$#$###OOdNMMMMMmmmmmmmmnmmnnnnnbnbbvbvvvccckdlcllllllzlzCCCCC",
"CCCCnmmnmmmmmmb4X=;==****%$##$#$#$$$$$$$$#**#XoaMBNMMMMMMmMmmnmnnmnnnnbbbbbvvvvvclkdkclkklllllzzCCCC",
"CCCCmnmmmmmmmnl;X#*=****$$$#$#$$$$$##$#$*;;#O3ykvmMBMMmMMmmmmnmnnnnnbnnbnbvbvvvccckdlclllklzlzzzCCCC",
"CCCCnmnmmmmnbnna=O##*##$$$$$$$$##$$$#$*34;#4ucmmbcvmNMMMMmmmmmnmnnnnnnbnbbbvvvvvczkdlvlkklllllzzCCCC",
"CCCnnmnmmmnbbmmMs;o###$$$$$$$$$$$$$$%484%5ivMMNNMmbcvmMMmmmmmmmnnmnnnnbbnbbbbvcvccjdlclllkllllzzcCCC",
"CCCmmnmmmbbnMMMMNf<O+######$$$$$$#$399:3ubMNBNBBNNMnbxbmMMMmmmnmnmnnnnnbbbbbvvvczksulbllkkllzllzcCCC",
"CCCnnmmnbbmmMMMMNNh3O@#$$$$#$$%$#=7q41tcMNVBBBBBNNMMmnvcbmmmmmmnmnnnnnbnbbbbbvcjp8-*uvclklllllzzzzCC",
"CCbnmnmbvmmmMmMNNNVk4+O##$$##$%%:76,9kMNVVNBBBBBNNNMMMmbczbmmmmmnmnnnbnbnbbvchy5%O@O-avlkllllzzzzcCC",
"CCammnbbnmmMMMMMNBBVc6@+#$$$$$$,3:5smNVVVVNNVBBBBNMMNMMmnbzxbnmmmnnnnnnbbbcsw3##%*%#O3dclklllzlzzzCC",
"CCrnmbvnmmmMMMMNBBBBVb8+O@#$$$**;rbNVVVVVVVNNBBBBNNMMMmMMmncllbnnnmnbnnbla8-#*,<<;*#@O7jcllllllzczCC",
"C*8nbbnmmmMMMMNBBBBBVVm9+o@$$##5dMVVVVVVVVVBBBBBNNNMMMMMMmmmncklbnnnnbjy6*-466433;*%#O@elllzlzzzzzcC",
"C;3jcbmmmmmMMNBBBBBBBNVme+o+o#wbNVVVVVVVVVBBBBBBBNMNMMMMMmmmmnbzklbvdw3*4qyw87541;-*##O;allllllzcccC",
"C<=ibmnmmMMMMNBBBBBBBBVVNi$X,amNVVVVVVVVVVNBBBBBNNMNMMMMMmmmmmmnbzf8;*5rpir97643<>-*##@O6hzlllzzzzcC",
"C<;amnnmmmMMMNBBBBBBBBBVVNd9jNNVVVVVVVVVBBBBBBBBNNMMMMmMMmMmmmmnnns*39yurq976443<>-*%##@@tlllzzzzccC",
"<;1jmnmmmMMMMNNBBBBBBBBVVVNbMNVVVVVVVVVVVVBBBBVBNNMMMMmMMMmmmmmmmmh<70wq9876543<,;-*%###O<dlllzzzzcC",
";;4vnmnmmmmMNNNBBBBBBNBVVVNnNVVVVVVVVVVVNBBBBBNNNNNMMMMMmmmmmmmmMMg<7899886443<,;;-*#####@qkllzzczcc",
"<=8bmnmmmMMMMMNBBBBBBBBVVVNnNVVVBVVVVBVNNBBBBBNNNMMMMmMMMmmmmMmMMnf,5788775431,:;-**#####O>sllzzczzc",
"<=qnnmmnmMMMMNNNVBBBBBBVVVMnNVNBVNBVVNBBBBBBBBNNNMNMMMMmmMmmmmmmnnd,458765431,:--**%#####@O0kzzzzzcc",
",*rmnmnmmmMNNMNBNBBBBBBVVVMnNVNBNBBBNBBBBBVBBNNNMMMMMMMMmmmmmmnmnnd,44665433,:-=**########O,szzzzccz",
"<*ynmnnmmmmMMMNNNBBBBBNBVVmnNVVBBBBBBBBBBBNBNNNNMMMMMmMmMmmmmnmnmbf,335543<,:-=*%#########@@rlzzczcc",
"<*unmnmnmmmMMMNNNBBBBBNBVVmnNNBBVNBBBBBNBNNNNNNMNMMMMmMmmMmnmmnnnnd,334333,>--=*###########o4hzzzccc",
"<*unnnnmmmmMMMMMNNBBBBVNVVMbNVBBNNVBBBBVBVNNMNMMMMMmMMmmmmmmmnnmnnf,<<333,;;-*%############+$pzzzzzl",
",*unnmmnmmmmMMMNNNNBBVNVVBMbNNNVBBVNBBBNNNNNNMMMMMMMMmMmmmmnmmmnnbf<,,<<,,;;=*%############@Oqjhhhhg",
"<*unnnnmnmmmmMMMNNNNNBNNNNMnNBBNNNNBNNNNNNMNMMNMMMmMMmmmmmmmnnmnnbg,,,<<,;;-=*############$#Owjjkklz",
"<*tnnnmnnmnmmMmMMNNMNMMNBBMbMBBNNNNNNNMNNMNMMMMMMmMmmmmmmmnmnmnnnbg,;:<,;;;-=*%############O$acczccc",
"<*wnbnnnmnmmmMmMmMMMMMMNNVMbMBNNNNNMNMMMMMMMMMMmMMMMMmmmmnmmmnnnnbg,-;,,,;;-=*%##########$#O3jvxzccc",
"<=0bnnnmnmmmmmmmMMMMMMMMNNMbMBBNMMMMMNMMMMMMMMMMMMmmmmmmnmmnmnnnnbg,*;,,;;;-=*############@Owxvxcccc",
"<;8vnnnnnnnmmmmmmmmmMmMMNVMbmBNNMNMMMMNMMMMMMmMMmmmmmmmmmnnmnnnnnbf,*;,<,;;-=*%###########@*avcccxcc",
"<;5cnbnnnmmnmmnmmmmMmMmMMNMbmNNMMMMMMMMMMmMmMMMmmmmmmmmnmnnmnnnnnbf,%;,,,;:-=**########%##o6jvcxcccc",
"<;3knnnnnnnmnmnmnmmmmmMmNNMbmNNMMMMMmMMMMMMMMmmMmmmmmmnmmnmnnnnnnbf,#;,,:;;;==*%########$@@yccxccccC",
"C<;fbnnnnmnnmnmnmmmmmmMMMMMvmNNMMMMMMMmMMMMmmMmmMmmmnmnmnmnnnnbnbbf>#;;,,:;;==*##########O1gccxxcccC",
"C<=anbbnbnnmnmnmmnmmmmmmMMMvnNNMmMmMmMMmmMmMmmmmmmmmnmmnmnnnnnnbbbd;#;,,,;;;-=*%########@+qxcccczccC",
"C<=rbbnnnnnnmmnnmnmmmmmmmMMbbMNMmMMMmMmMMmmmmmmmmmmnmnnmnnnnbnnbbbd;#-:,,,:;;=*%########+;sccxcccccC",
"C<=9bbbnnbnnnnnmnmmnnmmmmNMcbMMmmmmmmmmmmmmmmmmmmnnmmnmnnnnnnbnbbvd-#;;,,,;;;-**%#######O9kcxxxzccvC",
"CC=6zbbnbnnnnnmnmnnmmnnmmMMbbMNmmmmmMmmmmmmmmmnmmnmnmnnnnnnbnnbbbbs*#*;:,,:;;-=*%######O;scccxccccCC",
"CC&tkvbbnbnbnnnnnmnmnmmnmMmccmMMmmmmmmmmmmnmmnmmnmnmnnnnnnnnbbbnbca*O@%-;,,;;;==*#####@O0lxxxccccvCC",
"CC;sckcnbnbnnnnnnmnmmnmnmmz0ecmmmmmmmmmnmnmmmnmnmnnnnnnnnbnnbnbbcjgu7*OO#$*====**$####o1scczczccvcCC",
"CCClbxlcbnnbbnnbnnnnnmnmnd3 o8fbnmmnmnmmnmmnnmnmmnnnnnnnnnbbnbbcklvvka01#OOO@@$*$$###@@rlcclcccccvCC",
"CCCcvbzjvbbbnnnnnbnnmnnbp=  $=:rkbnmnnmnmnnmmnnnnnnnnnbnnbbnnvclvnbvcclfy7-+OO@@@#@##o7hzccccccccCCC",
"CCCcvbvlkvnnbbnnnnnnnmce#   .$-#4pxbnmnmnmnnnmnnnnnnbnnbbnnnvcvnnnvvvvczljsr6-@OO@@OO1szclzcccccvCCC",
"CCCCvbvckkbbbbbnbnnnnj8X      o$$#7scnnmmnmnnnnnnnnnnnbnnbbvcnmnnvvcccczcllkhae7:$OO:illlcccccccCCCC",
"CCCCcbbbvkkcbnbbbnnns3   .      o@o$9dcbnnnnnnnnnnbnbbnbbvcvnmnnvvvvcczzcllllkjhduw8pcclcclcccccCCCC",
"CCCCcbcbbvljcbbnbnbu*  X....      XXX%qfcbnnnnnnbnnbnbbccvnmmnbvvcccczczclllkkklklkgkbcccccccvcvCCCC",
"CCCCCcvcvbbxjxbbnz0o.oooXXX....        =wgcbbbnbbbbbvclcbmmmnbvvcvcczczlllllklkllllgkblclccccvvCCCCC",
"CCCCCvccvbbvzjkxd4.XoOOooooXX...         ;wfcbbbbbvzkkvnmmnnvvvcccczcclllllklklcllkfkbcxccccccvCCCCC",
"CCCCCCvvvcvvbcli*Xo+@++OOOoooXXXX....     .;wfcvvzjjlbnmmnbvvvvccclcclllllkkkllllllglbxxcccccvCCCCCC",
"CCCCCCvcvvcvvbbi@#$$##++@@OoooooXXX.. .     .:wdhgjcnnnnbbvvvccccccccllllklklllczzkgxvcccccvvbCCCCCC",
"CCCCCCCcccvvvcvk5#%$$###@@@@++ooooXXXX...      6hzbnnnbbvvcvcccclcllllllkkllllllxlkgxvzclcccvCCCCCCC",
"CCCCCCCCcccvvcvvi****%%$##+##O+ooOoooXXX....   4lbbbbbvvvvccccclcllllllklllllcllxxjgcvcccccvCCCCCCCC",
"CCCCCCCCzcccvvcvl8*;;*=*$$$$@##@+O+OoooXXXX... 7lbbvbvvcvcczccczllllllklklllllllzxjgcccxccvvCCCCCCCC",
"CCCCCCCCCcccccvvva,;:;;=**%%$$#++++++OOoooXXX. 9lvvvvvvvcccczclccllllkkklllllllcxxjhccccvcvCCCCCCCCC",
"CCCCCCCCCCzzzcccvzq;,,::;;;**%$$#$@+++OOOOooo. qzvvvccczzclczllllllllllllllllcclxxhjvccccvCCCCCCCCCC",
"CCCCCCCCCCxcxcxccvf4<1<1<;;;;==**$$#@@@@@OOOoXXelcvccczclccczlllllkllklzzllzzzzcczgkcccvcvCCCCCCCCCC",
"CCCCCCCCCCCxxxxzxxzu<2221<<;;;;===**$$#@@@@OOoXtccclclccccllllllklkkklllllllzzzzxzgzccvcvCCCCCCCCCCC",
"CCCCCCCCCCCCzzzzczzk91433211<:;;;-===*$$##@@@ooulccccccllllllllkklkllllllzzzzzczckgxcvvvCCCCCCCCCCCC",
"CCCCCCCCCCCCClzzzzczs44544221<<<:;;;===**$$$#ooilcclclcllllllllkkllllzlzzlzczzzzcjjvvvcCCCCCCCCCCCCC",
"CCCCCCCCCCCCCCzllzczzu3655432221<<::;;;-=***#O@plcllzlzlzlllkklklllllzlllzzcxccclipaiiCCCCCCCCCCCCCC",
"CCCCCCCCCCCCCCCzlllzlj0476654432311<<:;;-===*O$allcllllllllklklllllzllzzzzczccclt1,,:CCCCCCCCCCCCCCC",
"CCCCCCCCCCCCCCCClzllllg867665454333311<::;;;*O=sllllllllkkklllllllllzzzzzzzcccjw<<<<CCCCCCCCCCCCCCCC",
"CCCCCCCCCCCCCCCCCzllllls668776654443311<<::;-@;slllllkklklkllzlllllczzzzcczccd9;,<<CCCCCCCCCCCCCCCCC",
"CCCCCCCCCCCCCCCCCCkllllla76887766655431311<:;@:dkllkkklklllllllzzlzzzlcccxczp5;1<<CCCCCCCCCCCCCCCCCC",
"CCCCCCCCCCCCCCCCCCClkkllla867888776655443311:#3dkkkllllllllllzlllclzccczccje3<<<<CCCCCCCCCCCCCCCCCCC",
"CCCCCCCCCCCCCCCCCCCCClkklksy0765666655544311:@4fkklklllllzllllzzzzczlczcza7:<<<CCCCCCCCCCCCCCCCCCCCC",
"CCCCCCCCCCCCCCCCCCCCCCllkgdjjdpyw9876654444566edjklllllllzlzzzzzczzccccdq3;<<<CCCCCCCCCCCCCCCCCCCCCC",
"CCCCCCCCCCCCCCCCCCCCCCCCjdhklllkkjhgffddddfghjjgdfhklllllzllxxzxczzccfe4;<<<CCCCCCCCCCCCCCCCCCCCCCCC",
"CCCCCCCCCCCCCCCCCCCCCCCCCCjzllllllllllllllllzlllkhffhjlzlzxxxxxxcczdw4:;1<<CCCCCCCCCCCCCCCCCCCCCCCCC",
"CCCCCCCCCCCCCCCCCCCCCCCCCCCxllllzlllllllllllzllzlzljgfghkllzxxczgi93,,<<<CCCCCCCCCCCCCCCCCCCCCCCCCCC",
"CCCCCCCCCCCCCCCCCCCCCCCCCCCCCllllllllllzllzlllllzlzzllkhggghhhu94,,,<,1CCCCCCCCCCCCCCCCCCCCCCCCCCCCC",
"CCCCCCCCCCCCCCCCCCCCCCCCCCCCCCCCzzlzlzlzlllzllzzxxxxxxzczlllld3:,1,1CCCCCCCCCCCCCCCCCCCCCCCCCCCCCCCC",
"CCCCCCCCCCCCCCCCCCCCCCCCCCCCCCCCCCzlzzzlzzzzzzzzxxxxcxzccccczr<<,,CCCCCCCCCCCCCCCCCCCCCCCCCCCCCCCCCC",
"CCCCCCCCCCCCCCCCCCCCCCCCCCCCCCCCCCCCCCxxzxxzzzzzxcxxxzcccxzcs3CCCCCCCCCCCCCCCCCCCCCCCCCCCCCCCCCCCCCC",
"CCCCCCCCCCCCCCCCCCCCCCCCCCCCCCCCCCCCCCCCCCczxcxxxcxcccczccCCCCCCCCCCCCCCCCCCCCCCCCCCCCCCCCCCCCCCCCCC"
};
