/* XPM */
static char *om100[] = {
/* columns rows colors chars-per-pixel */
"79 100 3 1 ",
"  c #BB8C58",
". c #009DDC",
"X c None",
/* pixels */
"XXXXXXXXXXXXXXXXXXXXXXXXXXXXXXXXXXXXXXXXXXXXXXXXXXXXXXXXXXXXXXXXXXXXXXXXXXXXXXX",
"XXXXXXXXXXXXXXXXXXXXXXXXXXXXXXXXXXXXXXXXXXXXXXXXXXXXXXXXXXXXXXXXXXXXXXXXXXXXXXX",
"XXXXXXXXXXXXXXXXXXXXXXXXXXXXXXXXXXXXXXXXXXXXXXXXXXXXXXXXXXXXXXXXXXXXXXXXXXXXXXX",
"XXXXXXXXXXXXXXXXXXXXXXXXXXXXXXXXXXXXXXXXXXXXXXXXXXXXXXXXXXXXXXXXXXXXXXXXXXXXXXX",
"XXXXXXXXXXXXXXXXXXXXXXXXXXXXXXXXXXXXXX  XXXXXXXXXXXXXXXXXXXXXXXXXXXXXXXXXXXXXXX",
"XXXXXXXXXXXXXXXXXXXXXXXXXXXXXXXXXXXXXX  XXXXXXXXXXXXXXXXXXXXXXXXXXXXXXXXXXXXXXX",
"XXXXXXXXXXXXXXXXXXXXXXXXXXXXXXXXXXXXXX  XXXXXXXXXXXXXXXXXXXXXXXXXXXXXXXXXXXXXXX",
"XXXXXXXXXXXXXXXXXXXXXXXXXXXXXXXXXXXXX    XXXXXXXXXXXXXXXXXXXXXXXXXXXXXXXXXXXXXX",
"XXXXXXXXXXXXXXXXXXXXXXXXXXXXXXXXX            XXXXXXXXXXXXXXXXXXXXXXXXXXXXXXXXXX",
"XXXXXXXXXXXXXXXXXXXXXXXXXXXXXXXXXXX        XXXXXXXXXXXXXXXXXXXXXXXXXXXXXXXXXXXX",
"XXXXXXXXXXXXXXXXXXXXXXXXXXXXXXXXXXXX      XXXXXXXXXXXXXXXXXXXXXXXXXXXXXXXXXXXXX",
"XXXXXXXXXXXXXXXXXXXXXXXXXXXXXXXXXXXX      XXXXXXXXXXXXXXXXXXXXXXXXXXXXXXXXXXXXX",
"XXXXXXXXXXXXXXXXXXXXXXXXXXXXXXXXXXXX      XXXXXXXXXXXXXXXXXXXXXXXXXXXXXXXXXXXXX",
"XXXXXXXXXXXXXXXXXXXXXXXXXXXXXXXXXXXX  XX   XXXXXXXXXXXXXXXXXXXXXXXXXXXXXXXXXXXX",
"XXXXXXXXXXXXXXXXXXXXXXXXXXXXXXXXXXX  XXXXX XXXXXXXXXXXXXXXXXXXXXXXXXXXXXXXXXXXX",
"XXXXXXXXXXXXXXXXXXXXXXXXXXXXXXXXXXXXXXXXXXXXXXXXXXXXXXXXXXXXXXXXXXXXXXXXXXXXXXX",
"XXXXXXXXXXXXXXXXXXXXXXXXXXXXXXXXXXXXXXXXXXXXXXXXXXXXXXXXXXXXXXXXXXXXXXXXXXXXXXX",
"XXXXXXXXXXXXXXXXXX..XXXXXXXXXXXXXXXXXXXXXXXXXXXXXXXXXXXXXX..XXXXXXXXXXXXXXXXXXX",
"XXXXXXXXXXXXXXXXXXX...XXXXXXXXXXXXXXXXXXXXXXXXXXXXXXXXXX....XXXXXXXXXXXXXXXXXXX",
"XXXXXXXXXXXXXXXXXXXX....XXXXXXXXXXXXXXXXXXXXXXXXXXXXXX.....XXXXXXXXXXXXXXXXXXXX",
"XXXXXXXXXXXXXXXXXXXX......XXXXXX...XXXXXXXX...XXXXXXX.....XXXXXXXXXXXXXXXXXXXXX",
"XXXXXXXXXXXXXXXXXXXXX......XXX....XXXXXXXXXX....XXX......XXXXXXXXXXXXXXXXXXXXXX",
"XXXXXXXXXXXXXXXXXXXXXX............XXXXXXXXXXX............XXXXXXXXXXXXXXXXXXXXXX",
"XXXXXXXXXXXXXXXXXXXXXX...........XXXXXXXXXXXX...........XXXXXXXXXXXXXXXXXXXXXXX",
"XXXXXXXXXXXXXXXXXXXXXX...........XXXXXXXXXXXXX..........XXXXXXXXXXXXXXXXXXXXXXX",
"XXXXXXXXXXXXXXXXXXXXXXX..........XX........XX..........XXXXXXXXXXXXXXXXXXXXXXXX",
"XXXXXXXXXXXXXXXXXXXXXXX................................XXXXXXXXXXXXXXXXXXXXXXXX",
"XXXXXXXXXXXXXXXXXXXXXXX................................XXXXXXXXXXXXXXXXXXXXXXXX",
"XXXXXXXXXXXXXXXXXXXXXXX.............XXXXXX.............XXXXXXXXXXXXXXXXXXXXXXXX",
"XXXXXXXXXXXXXXXXXXXXX...........XXXXXXXXXXXXXX...........XXXXXXXXXXXXXXXXXXXXXX",
"XXXXXXXXXXXXXXXXXXX.............XXXXXXXXXXXXXX.............XXXXXXXXXXXXXXXXXXXX",
"XXXXXXXXXXXXXXXXXX...............XXXXXXXXXXXXX..............XXXXXXXXXXXXXXXXXXX",
"XXXXXXXXXXXXXXXX.................XXXXXXXXXXXXX................XXXXXXXXXXXXXXXXX",
"XXXXXXXXXXXXXXX..................XXXXXXXXXXXX..................XXXXXXXXXXXXXXXX",
"XXXXXXXXXXXXXX........XX.........XXXXXXXXXXXX.........XX........XXXXXXXXXXXXXXX",
"XXXXXXXXXXXXX........XXX.........XXXXXXXXXXXX..........XX........XXXXXXXXXXXXXX",
"XXXXXXXXXXXX........XXXX..........XXXXXXXXXXX..........XXX........XXXXXXXXXXXXX",
"XXXXXXXXXXX........XXXX...........XXXXXXXXXX...........XXXX........XXXXXXXXXXXX",
"XXXXXXXXXX........XXXXX...........XXXXXXXXXX...........XXXXX........XXXXXXXXXXX",
"XXXXXXXXX.........XXXXX...........XXXXXXXXXX...........XXXXX.........XXXXXXXXXX",
"XXXXXXXXX........XXXXXX............XXXXXXXXX............XXXXX.........XXXXXXXXX",
"XXXXXXXX........XXXXXX.............XXXXXXXX.............XXXXXX........XXXXXXXXX",
"XXXXXXX.........XXXXXX.............XXXXXXXX.............XXXXXX.........XXXXXXXX",
"XXXXXXX........XXXXXXX.............XXXXXXXX.............XXXXXXX........XXXXXXXX",
"XXXXXX.........XXXXXXX..............XXXXXXX..............XXXXXX.........XXXXXXX",
"XXXXXX........XXXXXXX...............XXXXXX...............XXXXXXX........XXXXXXX",
"XXXXXX........XXXXXXX...............XXXXXX...............XXXXXXX.........XXXXXX",
"XXXXX.........XXXXXXX...............XXXXXX...............XXXXXXX.........XXXXXX",
"XXXXX........XXXXXXX.................XXXXX................XXXXXXX........XXXXXX",
"XXXXX........XXXXXXX.................XXXX.................XXXXXXX.........XXXXX",
"XXXX.........XXXXXXX.................XXXX.................XXXXXXX.........XXXXX",
"XXXX.........XXXXXXX.................XXXX..................XXXXXX.........XXXXX",
"XXXX.........XXXXXX...................XXX........X.........XXXXXXX........XXXXX",
"XXXX.........XXXXXX.........XX........XX.........X.........XXXXXXX........XXXXX",
"XXXX.........XXXXXX.........XX........XX........XX..........XXXXXX........XXXXX",
"XXXX........XXXXXX.........XXX........XX........XXX.........XXXXXX........XXXXX",
"XXXX........XXXXXX.........XXX.........X........XXX.........XXXXXX........XXXXX",
"XXXX.........XXXXX.........XXXX.................XXX..........XXXXX........XXXXX",
"XXXX.........XXXX.........XXXXX................XXXXX.........XXXXX........XXXXX",
"XXXX.........XXXX.........XXXXX................XXXXX..........XXX.........XXXXX",
"XXXX.........XXX..........XXXXX................XXXXXX.........XXX.........XXXXX",
"XXXX.........XXX.........XXXXXXX...............XXXXXX.........XXX.........XXXXX",
"XXXXX........XXX.........XXXXXXX..............XXXXXXX..........XX.........XXXXX",
"XXXXX.........X..........XXXXXXX..............XXXXXXXX.........XX........XXXXXX",
"XXXXX.........X.........XXXXXXXX..............XXXXXXXX.........X.........XXXXXX",
"XXXXXX..................XXXXXXXX..............XXXXXXXX...................XXXXXX",
"XXXXXX..................XXXXXXXX..............XXXXXXXXX.................XXXXXXX",
"XXXXXX.................XXXXXXXXX..............XXXXXXXXX.................XXXXXXX",
"XXXXXXX................XXXXXXXXX..............XXXXXXXXX................XXXXXXXX",
"XXXXXXXX...............XXXXXXXXX...............XXXXXXXXX...............XXXXXXXX",
"XXXXXXXX..............XXXXXXXXX................XXXXXXXXX..............XXXXXXXXX",
"XXXXXXXXX.............XXXXXXXX..................XXXXXXXX.............XXXXXXXXXX",
"XXXXXXXXX.............XXXXXXXX..................XXXXXXXXX............XXXXXXXXXX",
"XXXXXXXXXX...........XXXXXXXXXXX..............XXXXXXXXXXX...........XXXXXXXXXXX",
"XXXXXXXXXXX..........XXXXXXXXXXXXXX.........XXXXXXXXXXXXX..........XXXXXXXXXXXX",
"XXXXXXXXXXX..........XXXXXXXXXXXXXX........XXXXXXXXXXXXXXX.........XXXXXXXXXXXX",
"XXXXXXXXXXX..........XXXXXXXXXXXXXXX.......XXXXXXXXXXXXXX...........XXXXXXXXXXX",
"XXXXXXXXXX.............XXXXXXXXXXXXX......XXXXXXXXXXXXXX............XXXXXXXXXXX",
"XXXXXXXXXX..............XXXXXXXXXXXXX....XXXXXXXXXXXXX...............XXXXXXXXXX",
"XXXXXXXXX................XXXXXXXXXXXXX..XXXXXXXXXXXXX................XXXXXXXXXX",
"XXXXXXXX...................XXXXXXXXXXXXXXXXXXXXXXXX...................XXXXXXXXX",
"XXXXXXXX..........XX.........XXXXXXXXXXXXXXXXXXXX.........XX...........XXXXXXXX",
"XXXXXXX...........XXXX..........XXXXXXXXXXXXXX..........XXXX............XXXXXXX",
"XXXXXX............XXXXXX..............................XXXXXXX............XXXXXX",
"XXXXX............XXXXXXXXXX.........................XXXXXXXXX.............XXXXX",
"XXXX.............XXXXXXXXXXXXX..................XXXXXXXXXXXXX..............XXXX",
"XXX..............XXXXXXXXXXXXXXXXXXXXXXXXXXXXXXXXXXXXXXXXXXXXX..............XXX",
"XXXXXXXXXXXXXXXXXXXXXXXXXXXXXXXXXXXXXXXXXXXXXXXXXXXXXXXXXXXXXXXXXXXXXXXXXXXXXXX",
"XXXXXXXXXXXXXXXXXXXXXXXXXXXXXXXXXXXXXXXXXXXXXXXXXXXXXXXXXXXXXXXXXXXXXXXXXXXXXXX",
"XXXXXXXXXXXXXXXXXXXXXXXXXXXXXXXXXXXXXXXXXXXXXXXXXXXXXXXXXXXXXXXXXXXXXXXXXXXXXXX",
"XXXXXXXXXXXXXXXXXXXXXXXXXXXXXXXXXXXXXXXXXXXXXXXXXXXXXXXXXXXXXXXXXXXXXXXXXXXXXXX",
"XXXXXXXXXXXXXXXXXXXXXXXXXXXXXXXXXXXXXXXXXXXXXXXXXXXXXXXXXXXXXXXXXXXXXXXXXXXXXXX",
"XXXXXXXXXXXXXXXXXXXXXXXXXXXXXXXXXXXXXXXXXXXXXXXXXXXXXXXXXXXXXXXXXXXXXXXXXXXXXXX",
"XX      XX      XX     XX   X      XXXX   XXX  XX  XXXX      XX  XX  X      XXX",
"XX   X   X  X   X  XXX  X   XX   XXXXXX    XX  XX  XXXX   X  XX  XX  XXX  XXXXX",
"XX   X   X     XX  XXX  X   XX   XXXXX     XX  XX  XXXX      XX  XX  XXX  XXXXX",
"XX   X   X  X  XX  XXX  X   XX   XXXXX      X  XX  XXXX   X   X  XX  XXX  XXXXX",
"XX      XX  X   XX     XX   XX   XXXX   XX  X      XXXX      XX      XXX  XXXXX",
"XXXXXXXXXXXXXXXXXXXXXXXXXXXXXXXXXXXXXXXXXXXXXXXXXXXXXXXXXXXXXXXXXXXXXXXXXXXXXXX",
"XXXXXXXXXXXXXXXXXXXXXXXXXXXXXXXXXXXXXXXXXXXXXXXXXXXXXXXXXXXXXXXXXXXXXXXXXXXXXXX"
};
